<svg width="23" height="30" viewBox="0 0 23 30" fill="none" xmlns="http://www.w3.org/2000/svg">
<path d="M4.16111 0.0805497C3.14685 0.392627 2.19762 1.28985 1.96356 2.13506C1.88554 2.40813 1.82053 3.05829 1.82053 3.56541V4.51465H11.3909H20.9613L20.9093 3.37036C20.8312 1.79697 20.3501 0.938762 19.1798 0.314608C18.6727 0.0285368 18.5687 0.0285368 11.5729 0.0025301C7.67198 -0.0104733 4.34315 0.0285368 4.16111 0.0805497Z" fill="white"/>
<path d="M0.754259 8.97473L7.204e-05 11.6144V19.2213C7.204e-05 27.6864 -0.0259344 27.3613 0.910298 28.2715C1.87254 29.2077 1.24838 29.1557 11.3779 29.1557H20.4801L21.0133 28.8697C21.7024 28.5056 22.4046 27.6864 22.5997 27.0232C22.7167 26.6721 22.7557 24.3575 22.7557 19.0652L22.7427 11.6014L22.0015 9.00074L21.2473 6.40009L11.3779 6.36108L1.49544 6.33508L0.754259 8.97473ZM13.0683 8.8707C17.1383 9.72892 20.025 13.7469 19.5049 17.8559C19.2578 19.7544 18.5557 21.1978 17.1643 22.6021C15.5259 24.2535 13.6405 25.0597 11.3779 25.0597C7.65897 25.0597 4.5382 22.6801 3.43292 19.0002C3.10784 17.96 3.12085 15.7884 3.43292 14.7222C4.09609 12.4986 5.70849 10.5741 7.67197 9.59888C9.47942 8.71467 11.2088 8.48061 13.0683 8.8707Z" fill="white"/>
<path d="M10.0126 12.4726C9.62246 12.6156 9.49243 12.7976 9.49243 13.2397C9.49243 13.9419 10.4027 14.267 10.9228 13.7469C11.2349 13.4348 11.2479 13.1227 10.9878 12.7456C10.7537 12.4075 10.4287 12.3165 10.0126 12.4726Z" fill="white"/>
<path d="M12.0801 12.4987C11.2999 12.8758 11.5469 14.0071 12.4051 14.0071C13.4324 14.0071 13.5754 12.7588 12.6002 12.4077C12.4832 12.3687 12.2491 12.4077 12.0801 12.4987Z" fill="white"/>
<path d="M7.82802 13.5778C7.29488 13.7859 7.42492 14.8262 7.99706 15.0472C8.5692 15.2683 9.10233 14.8782 9.10233 14.254C9.10233 13.6689 8.45217 13.3308 7.82802 13.5778Z" fill="white"/>
<path d="M13.9395 13.5779C13.4064 13.786 13.5364 14.8262 14.1086 15.0473C14.6807 15.2684 15.2138 14.8783 15.2138 14.2411C15.2138 13.643 14.5897 13.3179 13.9395 13.5779Z" fill="white"/>
<path d="M10.2076 15.6193C8.24413 16.2305 6.9308 18.5451 7.64598 20.1445C8.1271 21.2497 9.06333 21.6008 10.5197 21.2237C11.2869 21.0287 11.4039 21.0287 12.3011 21.2367C13.1073 21.4318 13.3284 21.4448 13.7965 21.3017C15.721 20.7296 15.786 18.129 13.9265 16.4515C12.9123 15.5283 11.4949 15.2162 10.2076 15.6193Z" fill="white"/>
</svg>
