<svg width="146" height="306" viewBox="0 0 146 306" fill="none" xmlns="http://www.w3.org/2000/svg">
<path d="M70.3821 1C70.3821 1 46.9421 25.35 66.0021 27.04C85.0621 28.73 124.142 17.44 112.442 47.6C100.742 77.76 125.812 75.98 135.662 82.61C149.342 91.81 150.742 121.33 114.142 141.81C77.5422 162.29 63.9421 141.28 27.3621 161.76C-9.21788 182.24 0.862154 221.12 7.46215 237.69C14.0522 254.26 39.0421 265.88 61.8721 261.68C84.7021 257.48 79.3921 225.98 61.8821 234.95C44.3721 243.92 35.2521 285.72 58.6421 299.12C82.0421 312.52 127.642 304.15 98.8821 263.33" stroke="white" stroke-width="1.26" stroke-miterlimit="10" stroke-linecap="round" stroke-linejoin="round"/>
</svg>
