<svg width="161" height="141" viewBox="0 0 161 141" fill="none" xmlns="http://www.w3.org/2000/svg">
<path d="M160.105 8.88943C160.105 8.88943 157.97 30.517 149.192 21.893C140.413 13.269 129.628 -10.5645 119.757 7.7447C109.879 26.0539 100.284 13.0439 92.9328 10.986C82.7268 8.13057 67.691 19.7643 72.9451 46.2217C78.1993 72.679 94.1483 70.5632 99.396 97.0141C104.644 123.459 81.402 134.751 70.5463 138.436C59.6843 142.121 43.5745 134.751 36.1017 121.825C28.6288 108.899 46.2627 98.3517 49.176 110.667C52.0892 122.976 35.4457 144.887 19.1237 139.022C2.80814 133.163 -12.1312 107.349 19.8504 104.39" stroke="white" stroke-width="1.26" stroke-miterlimit="10" stroke-linecap="round" stroke-linejoin="round"/>
</svg>
