<svg width="33" height="35" viewBox="0 0 33 35" fill="none" xmlns="http://www.w3.org/2000/svg">
<path d="M18.4699 0.289313C17.5203 0.835326 16.998 2.8532 17.3778 4.5862C17.9476 7.29253 20.464 7.57741 21.5323 5.03726C21.8172 4.37254 21.8172 4.01645 21.5798 3.01938C20.9863 0.431751 19.8705 -0.541577 18.4699 0.289313Z" fill="white"/>
<path d="M12.986 1.47629C11.4904 2.33092 11.5379 6.81773 13.0097 7.60114C13.9118 8.07593 14.719 7.90975 15.5736 7.05512C16.1671 6.46163 16.3808 6.03432 16.3808 5.46456C16.3808 4.42002 15.6686 2.2597 15.1463 1.68995C14.6715 1.16768 13.6744 1.07272 12.986 1.47629Z" fill="white"/>
<path d="M23.5738 4.89468C22.6243 5.29825 22.0782 6.3428 22.0782 7.79092C22.0782 10.7821 25.1407 12.0166 26.4226 9.52392C27.1585 8.09954 26.4938 5.36947 25.2594 4.79972C24.5234 4.46736 24.5234 4.46736 23.5738 4.89468Z" fill="white"/>
<path d="M7.8344 6.3666C5.91148 8.07586 7.33586 11.8979 9.85227 11.8979C10.8493 11.8979 11.8701 10.711 11.8701 9.57146C11.8701 8.31325 11.3241 7.10253 10.4458 6.34286C9.49618 5.55944 8.73651 5.55944 7.8344 6.3666Z" fill="white"/>
<path d="M16.1671 9.21539C16.0009 9.28661 14.6715 10.5211 13.2471 11.9455L11.7289 13.4636C11.0338 14.1588 10.6703 15.1187 10.7307 16.0999C10.8257 17.5006 10.9206 17.7379 11.5853 18.3314C12.5349 19.1861 13.1996 19.1861 14.719 18.4027C16.2383 17.6193 17.4728 17.6193 19.0159 18.4027C20.3928 19.1386 21.105 19.1861 21.8884 18.5451C22.743 17.9041 23.0991 16.8358 22.9804 15.4827C22.8617 14.3906 22.7667 14.2245 20.3928 11.898C17.449 9.00173 17.1642 8.81182 16.1671 9.21539Z" fill="white"/>
<path d="M30.7195 22.3197C30.0311 22.5571 28.5354 23.3879 27.3722 24.1239C25.3068 25.4533 25.2831 25.5008 25.2831 26.4266C25.2831 28.2309 24.0012 28.6344 19.6093 28.2546C16.7843 28.0172 15.6685 28.0884 13.9355 28.5869C12.6536 28.943 12.2263 28.4682 13.3183 27.8748C14.0305 27.4949 14.7189 27.4474 18.9921 27.4474C21.6747 27.4474 24.0012 27.3525 24.1673 27.2575C24.3098 27.1388 24.4522 26.759 24.4522 26.3792C24.4522 25.4533 23.7875 25.0497 21.8408 24.7174C19.4194 24.3375 16.1908 23.7678 14.2441 23.3879C12.0126 22.9606 10.0897 23.2218 7.92938 24.2188L6.41003 24.931V28.5869V32.2429L9.09262 32.1479C11.3479 32.0529 12.1788 32.1242 14.5528 32.6464C16.0958 32.9788 17.6152 33.2637 17.9001 33.2637C18.5885 33.2637 23.0753 31.0796 25.6392 29.4891C29.8886 26.8539 32.9985 23.9814 32.9985 22.6995C32.9985 22.2247 32.5712 21.8449 32.0964 21.8686C32.0014 21.8923 31.3842 22.0823 30.7195 22.3197Z" fill="white"/>
<path d="M0.522617 23.4355C0.000343584 23.7916 0.000343568 23.9103 0.000343568 28.7532C0.000343568 34.6643 -0.0946153 34.4507 2.87285 34.4507C5.62666 34.4507 5.57918 34.5456 5.57918 28.7057C5.57918 24.0052 5.57918 23.9577 5.00942 23.5067C4.29723 22.9132 1.32977 22.8657 0.522617 23.4355Z" fill="white"/>
</svg>
