<svg width="33" height="33" viewBox="0 0 33 33" fill="none" xmlns="http://www.w3.org/2000/svg">
<path d="M10.5339 1.1542L9.7699 2.30839L11.0216 4.68178C11.7044 5.98228 13.7039 9.73745 15.4433 13.0212L18.6132 18.9709L19.0197 18.5808C19.2472 18.3695 19.7024 18.0769 20.0438 17.9306L20.6453 17.6867L20.3039 16.9877C19.9788 16.3537 11.363 0.0812931 11.3142 0.0162678C11.298 1.14441e-05 10.9566 0.520208 10.5339 1.1542ZM17.0689 12.566C17.0689 13.1025 17.0364 13.135 16.4999 13.135C15.9635 13.135 15.931 13.1025 15.931 12.566C15.931 12.0296 15.9635 11.9971 16.4999 11.9971C17.0364 11.9971 17.0689 12.0296 17.0689 12.566Z" fill="white"/>
<path d="M21.0517 1.21913C20.6941 1.88564 20.3852 2.50337 20.3527 2.58465C20.3202 2.66593 20.9054 2.73096 21.6695 2.73096C22.6936 2.73096 23.0675 2.66593 23.1325 2.50337C23.1813 2.38958 22.8724 1.77184 22.466 1.13785L21.702 -7.7486e-05L21.0517 1.21913Z" fill="white"/>
<path d="M0 4.60047V5.16943H4.95813H9.91626L9.6399 4.60047L9.36355 4.0315H4.68177H0V4.60047Z" fill="white"/>
<path d="M15.0694 4.60047L15.3458 5.16943H24.1729H33V4.60047V4.0315H23.8965H14.7931L15.0694 4.60047Z" fill="white"/>
<path d="M16.2074 6.7463C16.3537 7.0064 16.4837 7.21773 16.5 7.23398C16.5 7.25024 16.63 7.03891 16.7764 6.77881L17.0527 6.30738H16.4837H15.931L16.2074 6.7463Z" fill="white"/>
<path d="M17.8005 7.33158C17.4917 7.90055 17.2316 8.437 17.2316 8.50202C17.2316 8.71335 18.4345 11.0217 18.5483 11.0217C18.5971 11.0217 18.7922 10.7129 18.971 10.3227C19.1661 9.94882 19.735 8.89217 20.2227 7.96557L21.133 6.30744H19.7513H18.3858L17.8005 7.33158Z" fill="white"/>
<path d="M13.3625 15.736L12.3384 17.6705L12.9561 17.9306C13.2975 18.0769 13.7527 18.3695 13.9803 18.5808L14.3867 18.9709L15.1019 17.6217L15.8335 16.2724L15.1832 15.037C14.8418 14.3542 14.5167 13.7852 14.4679 13.7852C14.4192 13.7852 13.9152 14.6631 13.3625 15.736Z" fill="white"/>
<path d="M8.69706 18.9709C7.44534 19.2798 6.4212 20.2064 5.94977 21.4581C5.70593 22.0596 5.67342 22.7261 5.72219 25.9936L5.77095 29.83L6.25864 30.6266C6.95765 31.732 8.0143 32.366 9.34731 32.4473C10.6153 32.5285 11.3956 32.2847 12.2246 31.5369C13.5414 30.3502 13.5739 30.2364 13.6227 24.9694C13.6714 19.8162 13.6389 19.5561 12.6798 19.0684C12.1759 18.8083 9.63992 18.7433 8.69706 18.9709ZM10.6803 20.2064C11.4931 20.5477 11.8508 20.8891 12.2084 21.6694C12.4685 22.2384 12.5173 22.7748 12.5173 25.7172C12.5173 28.8546 12.4847 29.1798 12.1759 29.83C11.2818 31.667 8.63204 31.9108 7.38031 30.2689L6.90888 29.6674L6.86012 25.9936C6.8276 23.9778 6.84386 22.1734 6.90888 21.962C7.03893 21.4418 7.94928 20.4502 8.5345 20.1901C9.18475 19.8975 9.96504 19.9138 10.6803 20.2064Z" fill="white"/>
<path d="M9.00586 21.2631C8.81079 21.3281 8.50192 21.6045 8.30685 21.8483C7.96547 22.2872 7.94921 22.4173 7.99798 25.8636L8.04675 29.4237L8.50192 29.8138C9.16842 30.3828 10.0788 30.3503 10.7615 29.7326L11.298 29.2611L11.3467 25.9124C11.3955 22.2222 11.3142 21.8158 10.4039 21.3444C9.8837 21.068 9.52606 21.0518 9.00586 21.2631Z" fill="white"/>
<path d="M20.2226 19.1172C19.3611 19.6699 19.3285 19.9625 19.3773 25.0182C19.4261 29.4236 19.4423 29.6674 19.7837 30.3014C20.2226 31.1142 21.2955 32.0734 22.0596 32.3335C22.3684 32.431 23.0837 32.4798 23.6527 32.4472C24.9857 32.366 26.0423 31.732 26.7414 30.6266L27.229 29.83L27.2778 25.9936C27.3266 21.7507 27.2453 21.2793 26.2862 20.1738C25.4246 19.1985 24.7093 18.9384 22.596 18.8734C20.9542 18.8083 20.6615 18.8408 20.2226 19.1172ZM24.433 20.1901C25.0345 20.4339 25.9611 21.4256 26.0911 21.962C26.1561 22.1734 26.1724 23.9778 26.1399 25.9936L26.0911 29.6674L25.6359 30.2527C25.0507 31.033 24.3517 31.3743 23.3926 31.3743C22.3034 31.3743 21.2793 30.7566 20.8241 29.83C20.5152 29.1798 20.4827 28.8384 20.4827 25.766C20.4827 21.5556 20.6615 20.9704 22.1896 20.2714C22.9699 19.9137 23.7177 19.8812 24.433 20.1901Z" fill="white"/>
<path d="M22.4985 21.3931C21.6694 21.9133 21.5881 22.336 21.6532 25.9611L21.7019 29.2611L22.2384 29.7326C22.7911 30.2365 23.6202 30.3665 24.2379 30.0414C24.9369 29.6513 25.0344 29.1148 25.0344 25.5872V22.2385L24.5955 21.7508C24.0103 21.1005 23.1975 20.9705 22.4985 21.3931Z" fill="white"/>
</svg>
