<?xml version="1.0" standalone="no"?>
<!DOCTYPE svg PUBLIC "-//W3C//DTD SVG 20010904//EN"
 "http://www.w3.org/TR/2001/REC-SVG-20010904/DTD/svg10.dtd">
<svg version="1.0" xmlns="http://www.w3.org/2000/svg"
 width="712.000000pt" height="712.000000pt" viewBox="0 0 712.000000 712.000000"
 preserveAspectRatio="xMidYMid meet">
<metadata>
Created by potrace 1.14, written by Peter Selinger 2001-2017
</metadata>
<g transform="translate(0.000000,712.000000) scale(0.100000,-0.100000)"
fill="#000000" stroke="none">
<path d="M4697 7097 c-15 -12 -31 -35 -35 -52 -10 -34 -8 -251 3 -435 13 -220
13 -250 -4 -268 -9 -9 -52 -44 -96 -77 -92 -68 -263 -204 -315 -249 -20 -17
-53 -44 -74 -61 -21 -16 -52 -43 -69 -59 -53 -47 -140 -112 -176 -130 l-33
-18 -142 58 c-77 31 -159 65 -181 74 -183 80 -351 98 -437 47 -25 -14 -53 -38
-63 -53 -39 -60 -24 -143 38 -208 118 -123 160 -169 233 -258 95 -117 109
-135 165 -218 24 -36 47 -66 52 -68 4 -2 7 -9 7 -15 0 -7 14 -32 31 -57 39
-57 189 -361 189 -383 0 -9 5 -19 10 -22 6 -3 10 -15 10 -26 0 -10 4 -27 9
-37 42 -82 87 -283 97 -432 4 -47 6 -89 6 -95 -1 -5 -3 -40 -5 -76 -8 -108
-37 -234 -84 -364 -30 -83 -54 -138 -64 -145 -3 -3 -12 -22 -18 -42 -7 -21
-16 -38 -19 -38 -4 0 -14 -15 -22 -32 -7 -18 -18 -37 -22 -43 -5 -5 -27 -35
-49 -65 -45 -62 -206 -230 -221 -230 -5 0 -28 11 -52 25 -196 115 -556 131
-813 35 -95 -35 -221 -100 -260 -135 -6 -5 -30 -23 -52 -39 -23 -17 -41 -33
-41 -38 0 -4 -4 -8 -10 -8 -17 0 -130 -121 -199 -214 l-44 -59 -14 34 c-8 19
-26 66 -39 104 -14 39 -29 78 -34 87 -6 10 -10 24 -10 31 0 30 -82 177 -126
226 -78 87 -157 115 -242 86 -51 -17 -73 -33 -114 -83 -29 -35 -34 -33 -43 18
-3 18 -8 36 -10 39 -2 4 -6 33 -10 66 -4 33 -9 74 -11 90 -2 17 -6 75 -9 130
-4 55 -7 118 -9 140 -1 22 2 48 6 58 6 11 5 17 -2 17 -6 0 -9 3 -6 8 2 4 7 43
10 87 7 84 14 140 23 190 3 17 7 39 8 50 2 11 11 53 20 94 9 40 18 78 19 85 2
6 9 31 16 56 8 25 14 47 14 50 1 3 5 11 9 18 5 6 6 12 3 12 -11 0 98 290 159
425 39 86 130 270 168 340 45 83 120 217 132 236 71 118 164 314 189 400 26
89 28 99 30 189 5 163 -43 263 -177 367 -54 42 -208 67 -310 49 -149 -25 -342
-171 -496 -376 -31 -41 -59 -76 -63 -78 -5 -2 -8 -8 -8 -12 0 -5 -13 -29 -30
-53 -16 -25 -30 -50 -30 -56 0 -6 -4 -11 -8 -11 -7 0 -93 -171 -141 -282 -42
-97 -131 -384 -147 -478 -3 -14 -7 -33 -10 -42 -3 -9 -7 -27 -9 -40 -3 -13
-11 -57 -19 -98 -9 -41 -18 -92 -21 -112 -22 -152 -23 -167 -32 -258 -10 -109
-10 -513 0 -605 4 -38 9 -92 12 -120 3 -27 7 -61 10 -75 3 -14 8 -41 11 -60 2
-19 9 -55 15 -80 5 -25 11 -54 13 -65 2 -11 9 -40 16 -65 7 -25 14 -52 15 -62
22 -111 197 -535 226 -546 5 -2 9 -10 9 -17 0 -17 33 -75 43 -75 4 0 7 -5 7
-11 0 -6 32 -59 72 -117 156 -234 257 -352 656 -769 23 -25 42 -49 42 -53 0
-5 6 -13 13 -17 17 -10 131 -154 164 -206 13 -21 28 -50 33 -65 l10 -27 -22
29 c-54 71 -159 165 -218 194 -90 45 -222 33 -287 -26 -103 -95 -104 -256 -1
-472 35 -74 127 -236 150 -265 5 -5 41 -53 81 -106 158 -211 267 -323 417
-435 122 -90 289 -183 340 -189 14 -2 59 -13 100 -24 71 -21 87 -24 170 -37
96 -15 142 -17 345 -18 192 -1 256 2 375 19 43 6 122 20 170 30 91 19 97 21
150 34 69 18 257 80 330 108 103 40 114 45 130 54 8 5 22 12 30 15 69 27 325
160 415 216 65 41 217 140 230 150 6 5 42 32 80 60 79 58 241 185 266 208 8 8
51 47 94 85 88 77 275 263 345 341 109 122 290 354 290 373 0 5 4 11 9 13 20
8 188 293 264 450 70 145 187 448 201 519 1 8 8 34 15 59 8 25 14 50 15 55 2
6 8 28 14 50 6 22 13 54 15 70 3 17 9 48 15 70 6 22 13 51 16 65 29 164 30
172 42 255 3 28 8 58 10 68 18 99 27 764 11 842 -3 17 -9 57 -13 90 -6 59 -9
74 -18 125 -3 14 -8 43 -11 65 -3 22 -12 69 -21 105 -8 36 -17 76 -20 90 -3
14 -7 32 -9 40 -9 41 -54 199 -65 225 -6 17 -11 30 -10 30 1 0 -4 20 -11 45
-7 25 -13 47 -14 50 -6 27 -107 310 -130 365 -7 17 -23 55 -35 85 -93 228
-204 436 -339 639 -31 46 -63 94 -72 107 -9 13 -27 37 -41 52 -14 16 -29 36
-34 44 -34 61 -329 358 -484 488 -36 30 -67 58 -70 61 -8 9 -143 103 -165 115
-11 6 -38 21 -60 34 -46 26 -126 50 -170 50 -16 0 -42 -10 -58 -23z m254
-1011 c114 -31 137 -35 214 -42 183 -18 338 7 474 75 35 18 64 31 65 29 1 -2
21 -31 44 -65 23 -33 42 -66 42 -72 0 -6 5 -11 10 -11 6 0 10 -5 10 -11 0 -6
9 -23 20 -39 61 -86 201 -372 270 -550 17 -47 36 -94 41 -105 20 -47 82 -239
123 -379 66 -225 103 -387 131 -571 3 -22 8 -53 11 -68 4 -28 12 -116 17 -204
2 -24 -1 -43 -5 -43 -4 0 -8 15 -9 33 0 17 -2 41 -4 52 -2 11 -7 43 -11 70 -5
44 -20 131 -39 230 -3 17 -8 38 -11 47 -3 9 -6 25 -8 35 -2 10 -12 47 -21 83
-9 36 -19 73 -21 83 -3 15 -34 120 -76 257 -6 19 -9 35 -7 36 2 0 -1 7 -7 15
-6 8 -22 48 -35 89 -13 41 -28 78 -34 82 -5 4 -6 8 -2 8 5 0 5 6 0 13 -4 6 -8
17 -9 22 -5 25 -97 240 -146 340 -64 131 -118 229 -170 308 -21 32 -38 60 -38
62 0 7 -61 94 -70 100 -5 3 -29 -6 -53 -19 -24 -14 -47 -22 -51 -19 -3 4 -6 1
-6 -5 0 -19 -24 -14 -38 8 -24 39 -103 19 -205 -53 -25 -17 -40 -19 -137 -14
-60 3 -113 8 -118 11 -5 3 -27 8 -49 10 -53 7 -185 49 -284 91 l-79 33 -93
-71 c-87 -67 -426 -344 -437 -356 -3 -3 -23 -19 -45 -36 -22 -16 -48 -37 -57
-45 -34 -31 -105 -60 -148 -60 -30 0 -93 21 -219 74 -212 88 -277 111 -358
123 -35 5 -133 99 -133 127 0 29 69 39 150 20 74 -17 238 -72 278 -93 81 -43
247 -104 284 -104 38 0 129 39 163 70 11 10 70 58 130 108 61 49 112 92 115
95 6 6 80 67 169 138 36 29 80 63 96 77 17 13 47 37 69 53 l38 29 88 -38 c48
-21 129 -49 181 -63z m-3213 68 c15 -3 34 -7 42 -11 8 -3 17 -7 20 -7 3 -1 22
-13 42 -26 60 -40 106 -139 102 -220 -3 -75 -4 -76 -29 -22 -29 64 -52 85
-124 118 -77 36 -165 35 -252 -3 -35 -15 -66 -30 -69 -33 -3 -3 -21 -17 -40
-30 -19 -13 -73 -61 -119 -107 -46 -46 -84 -83 -86 -83 -1 0 -10 21 -20 46
-15 40 -15 47 -2 62 8 9 23 28 33 42 32 41 146 150 199 189 69 51 138 81 199
87 28 3 52 7 55 9 2 3 8 2 13 -1 4 -3 21 -7 36 -10z m-403 -1096 c-2 -7 -6
-47 -9 -88 -3 -41 -8 -87 -11 -103 -12 -63 -60 -197 -96 -272 -36 -76 -139
-242 -157 -254 -19 -14 -158 -222 -251 -377 -56 -92 -102 -165 -102 -163 -2 7
-10 83 -10 101 0 10 23 57 50 104 28 47 51 88 51 90 0 3 5 10 10 17 6 7 33 48
60 92 27 44 53 85 58 91 5 5 15 21 22 34 7 13 17 29 21 34 135 168 237 332
287 461 10 28 23 59 27 70 5 11 9 22 10 25 1 7 16 81 22 109 4 26 11 41 18 41
3 0 3 -6 0 -12z m5092 -1065 c1 -22 -1 -24 -8 -10 -6 9 -7 22 -4 27 9 14 10
13 12 -17z m-2381 -175 c-5 -78 -14 -136 -40 -253 -6 -26 -51 -161 -56 -165
-3 -3 -6 -12 -8 -20 -5 -26 -98 -213 -126 -255 -14 -22 -32 -49 -39 -59 -67
-103 -272 -316 -328 -339 -31 -13 -37 -13 -69 6 -139 80 -178 96 -275 112 -27
4 -59 9 -70 11 -32 7 -166 6 -225 -2 -115 -14 -307 -75 -351 -111 -8 -7 -19
-13 -23 -13 -19 0 -138 -91 -196 -150 -68 -70 -120 -129 -120 -137 0 -2 -6
-10 -12 -18 -24 -25 -48 -55 -48 -61 0 -20 -74 -61 -105 -59 -11 1 -30 2 -42
3 -32 3 -88 65 -108 120 -9 26 -20 56 -25 67 -4 11 -20 54 -35 95 -15 41 -33
89 -39 105 -30 82 -93 159 -147 182 -21 9 -31 8 -52 -6 -34 -22 -68 -66 -70
-90 0 -11 -5 -17 -9 -15 -10 6 -1 114 13 164 15 57 62 100 107 100 32 0 105
-74 136 -136 36 -74 37 -78 80 -202 20 -57 43 -117 51 -135 46 -94 118 -129
192 -92 16 8 58 52 93 97 72 94 96 121 160 185 118 117 306 211 500 249 50 9
287 11 335 1 100 -19 224 -69 268 -107 29 -25 60 -28 98 -9 42 21 211 187 273
269 93 123 207 340 241 460 3 8 15 51 29 95 20 69 34 136 35 183 1 6 4 12 7
12 3 0 3 -37 0 -82z m-2886 -412 c0 -3 -4 -8 -10 -11 -5 -3 -10 -1 -10 4 0 6
5 11 10 11 6 0 10 -2 10 -4z m-5 -55 c3 -5 2 -12 -3 -15 -5 -3 -9 1 -9 9 0 17
3 19 12 6z m9 -98 c6 -65 9 -86 21 -143 3 -14 7 -35 9 -47 7 -35 38 -135 52
-170 8 -18 20 -48 28 -65 8 -18 17 -58 20 -88 8 -81 49 -209 98 -302 36 -71
136 -229 175 -278 19 -25 76 -102 112 -155 19 -28 37 -52 40 -55 4 -3 12 -14
18 -25 7 -11 36 -57 64 -103 28 -46 49 -85 48 -87 -2 -2 -34 31 -71 73 -37 43
-113 124 -169 182 -56 58 -120 134 -144 170 -92 141 -162 313 -171 424 -3 34
-14 79 -23 101 -42 91 -73 189 -85 260 -2 17 -5 30 -6 30 -1 0 -3 11 -5 25 -2
14 -6 43 -9 65 -15 102 -24 255 -15 255 3 0 9 -30 13 -67z m2611 -1563 c117
-26 113 -25 121 -33 4 -4 17 -7 29 -7 11 0 25 -4 31 -8 5 -5 25 -15 44 -22 53
-21 200 -114 246 -157 22 -21 55 -57 73 -80 25 -33 39 -43 61 -43 19 0 33 -7
40 -20 6 -11 7 -20 3 -21 -4 0 -41 -1 -82 -2 -64 -2 -77 1 -100 21 -62 56
-311 205 -311 187 0 -3 -13 1 -28 9 -45 23 -161 52 -252 62 -155 18 -314 0
-470 -54 -93 -32 -283 -126 -372 -185 -38 -25 -68 -42 -68 -39 0 4 -4 2 -8 -3
-4 -6 -47 -40 -97 -75 -49 -35 -112 -82 -140 -105 -67 -56 -182 -133 -225
-152 -81 -35 -176 -36 -245 -2 -28 13 -55 29 -61 34 -62 56 -87 81 -134 136
-157 183 -243 228 -328 173 -13 -9 -26 -13 -29 -10 -3 3 -5 30 -5 60 0 64 22
101 67 113 88 22 152 -19 310 -201 77 -89 79 -91 130 -126 50 -34 83 -48 134
-56 20 -3 37 -10 39 -15 7 -19 252 100 252 123 0 4 5 8 11 8 6 0 16 6 24 13 7
6 21 19 32 27 10 8 39 32 65 53 25 20 51 37 56 37 6 0 12 4 14 8 4 11 143 107
233 162 135 82 311 161 394 177 14 2 28 6 32 8 4 3 24 7 45 11 22 3 57 9 79
13 74 13 295 3 390 -19z"/>
<path d="M2627 5373 c-206 -35 -410 -139 -556 -281 -107 -105 -212 -272 -255
-408 -16 -50 -20 -64 -34 -134 -3 -19 -6 -105 -6 -190 1 -136 4 -167 28 -255
29 -109 82 -225 144 -321 46 -71 168 -197 237 -244 52 -36 197 -106 235 -114
14 -3 52 -12 85 -20 59 -14 332 -16 395 -2 14 3 38 8 54 11 158 32 353 139
462 253 62 66 124 146 124 161 0 6 4 11 8 11 4 0 13 12 19 28 7 15 23 53 37
86 40 93 68 201 61 239 -8 42 -47 67 -98 62 -37 -3 -79 -24 -177 -90 -77 -51
-233 -126 -278 -133 -130 -22 -238 8 -323 91 -113 110 -162 209 -161 327 1
137 63 252 195 357 112 89 348 116 507 58 41 -15 80 -31 85 -35 24 -18 54 -17
71 1 23 26 22 77 -4 131 -12 24 -22 48 -22 52 0 4 -11 19 -25 34 -14 15 -25
32 -25 37 0 16 -129 144 -175 173 -94 60 -185 96 -295 118 -60 11 -241 10
-313 -3z"/>
</g>
</svg>
